<svg width="45" height="50" viewBox="0 0 45 50" fill="none" xmlns="http://www.w3.org/2000/svg">
<g clip-path="url(#clip0_6:2753)">
<path fill-rule="evenodd" clip-rule="evenodd" d="M7.91738 33.302C9.29328 35.5323 11.1212 37.4497 13.2832 38.9305C15.1487 40.1326 17.2394 40.942 19.428 41.3096C21.6165 41.6772 23.857 41.5951 26.0128 41.0685C28.1685 40.5418 30.1945 39.5816 31.967 38.2463C33.7395 36.9111 35.2216 35.2288 36.3227 33.302C35.2604 32.4397 34.102 31.7031 32.8705 31.1069C31.7043 30.3251 30.4434 29.6946 29.1181 29.2308C28.8122 29.7894 28.4196 30.296 27.9549 30.7317C27.4885 31.2155 26.9729 31.6494 26.4164 32.0262C25.4927 32.598 24.4629 32.9768 23.3889 33.1399C22.3148 33.303 21.2189 33.2471 20.1671 32.9754C19.1153 32.7037 18.1294 32.2218 17.2688 31.5589C16.4082 30.896 15.6906 30.0658 15.1594 29.1182C13.2832 27.1294 13.2833 20.7317 17.9362 17.8612C18.9167 17.2483 20.0206 16.8599 21.1688 16.7236C22.317 16.5874 23.4811 16.7067 24.5778 17.0731C25.5525 17.3742 26.4579 17.8651 27.242 18.5178C28.3114 19.2682 28.0863 19.2683 28.6679 20.075C29.2495 20.8818 28.6679 20.4503 29.4746 20.6004C30.5636 19.8553 31.6977 19.1786 32.8705 18.5741C34.0366 17.9722 35.1589 17.2888 36.2289 16.529C35.2643 14.838 33.9916 13.3426 32.4765 12.1201C30.943 10.8567 29.1956 9.87812 27.317 9.23075C25.1166 8.49462 22.7853 8.23272 20.4765 8.46231C18.1676 8.69191 15.9335 9.40777 13.9212 10.5628C10.6261 12.4862 8.09304 15.4845 6.74704 19.0545C5.40103 22.6245 5.32406 26.5488 6.52903 30.1688C6.96055 31.2945 7.42958 32.1576 7.80482 33.1707L7.91738 33.302Z" fill="white"/>
<path fill-rule="evenodd" clip-rule="evenodd" d="M0 13.9775V35.9475L0.412732 37.4484C1.76978 36.8702 3.06998 36.1667 4.29642 35.3471C5.46458 34.5988 6.67343 33.9161 7.91742 33.3021C7.54219 32.2889 7.07316 31.4259 6.64164 30.3002C5.43667 26.6801 5.51364 22.7559 6.85964 19.1859C8.20564 15.6159 10.7387 12.6176 14.0338 10.6942C16.0461 9.53916 18.2802 8.82329 20.5891 8.5937C22.8979 8.3641 25.2292 8.626 27.4296 9.36213C29.3082 10.0095 31.0556 10.988 32.5891 12.2514C34.1042 13.4739 35.3769 14.9694 36.3415 16.6604C38.8089 15.4059 41.1906 13.9894 43.4709 12.4202C42.9831 11.3883 42.3452 11.1257 41.2383 10.5441L25.5535 1.35084C24.6708 0.795455 23.7181 0.360103 22.7205 0.0562744H21.5009C20.4637 0.451414 19.4651 0.941288 18.5178 1.51969C17.561 2.1013 16.6416 2.58911 15.7036 3.17073C13.8274 4.31519 11.9512 5.27204 10.075 6.39775C8.19887 7.52345 1.6135 10.863 0.694175 12.4202C0.524758 12.6662 0.397917 12.939 0.318946 13.227C0.0938052 13.8649 0.150092 14.1276 0.0562829 13.8649C0.0735665 13.9199 0.0735665 13.9788 0.0562829 14.0338L0 13.9775Z" fill="#9077B5"/>
<path fill-rule="evenodd" clip-rule="evenodd" d="M36.2664 16.6605C35.1964 17.4203 34.0742 18.1036 32.908 18.7055C31.7353 19.31 30.6011 19.9868 29.5122 20.7318L25.7598 22.8331C24.4969 23.4896 23.2863 24.2423 22.1388 25.0845C24.5799 26.3073 26.9255 27.7122 29.1557 29.2871C30.4809 29.751 31.7418 30.3814 32.908 31.1633C34.1395 31.7595 35.2979 32.4961 36.3602 33.3584C37.6135 33.9333 38.8236 34.5979 39.9812 35.3471C41.1158 36.2092 42.3832 36.8809 43.7336 37.3359L44.1651 36.0976V14.1276C43.9024 13.4334 44.0525 13.0019 43.4709 12.4203C41.1906 13.9894 38.8089 15.4059 36.3414 16.6605H36.2664Z" fill="#372780"/>
<path fill-rule="evenodd" clip-rule="evenodd" d="M0.412747 37.4484L0.525341 37.561L1.4259 38.6304C2.28894 39.2683 14.3527 46.1351 15.8912 47.1107L21.2758 50.0188H22.8143C23.761 49.6269 24.6822 49.1757 25.5722 48.6679L33.5085 44.0525C35.2533 42.9831 37.0169 42.0638 38.7617 40.9944C40.5066 39.9249 42.7017 39.1182 43.6585 37.3921C42.3081 36.9372 41.0408 36.2654 39.9062 35.4034C38.7486 34.6542 37.5385 33.9895 36.2852 33.4146C35.1841 35.3414 33.7021 37.0237 31.9295 38.3589C30.157 39.6942 28.1311 40.6544 25.9753 41.1811C23.8195 41.7077 21.579 41.7897 19.3905 41.4222C17.202 41.0546 15.1112 40.2452 13.2458 39.0431C11.0837 37.5623 9.25584 35.6449 7.87994 33.4146C6.63595 34.0286 5.42706 34.7113 4.25891 35.4596C3.03246 36.2792 1.73229 36.9828 0.375244 37.561L0.412747 37.4484Z" fill="#2A245E"/>
<path fill-rule="evenodd" clip-rule="evenodd" d="M15.1969 29.1745C17.3977 27.6377 19.712 26.2704 22.12 25.0844C23.2675 24.2422 24.4781 23.4896 25.741 22.833L29.4934 20.7317C28.6491 20.5816 29.3433 21.0694 28.6866 20.2064C28.03 19.3434 28.3302 19.3996 27.2607 18.6492C26.4767 17.9965 25.5713 17.5056 24.5966 17.2045C23.4999 16.8381 22.3357 16.7187 21.1875 16.855C20.0393 16.9912 18.9354 17.3796 17.9549 17.9925C13.3208 20.788 13.3208 27.1857 15.1782 29.2495L15.1969 29.1745Z" fill="#9077B5"/>
<path fill-rule="evenodd" clip-rule="evenodd" d="M15.197 29.1745C15.7282 30.1221 16.4458 30.9523 17.3064 31.6152C18.167 32.2781 19.1529 32.76 20.2047 33.0317C21.2565 33.3034 22.3524 33.3594 23.4265 33.1962C24.5005 33.0331 25.5304 32.6543 26.4541 32.0826C27.0105 31.7057 27.5261 31.2718 27.9925 30.788C28.4572 30.3523 28.8498 29.8458 29.1558 29.2871C26.9255 27.7121 24.5799 26.3072 22.1389 25.0844C19.7309 26.2704 17.4165 27.6377 15.2158 29.1745H15.197Z" fill="#2A245E"/>
<path fill-rule="evenodd" clip-rule="evenodd" d="M33.6585 22.5704L31.4258 22.6079L31.332 23.7899H33.6585L33.6022 26.0976H31.332L31.3696 27.2795L33.6585 27.3358V29.6435H34.7842L34.8405 27.3358H37.1294V29.6435H38.2926L38.3489 27.3358L40.5816 27.2795L40.6378 26.1538L38.4052 26.0976L38.2926 23.8461L40.5816 23.7899V22.6079H38.2926V20.2439H37.2232L37.1294 22.5704L34.8405 22.6079V20.2439H33.7711L33.6585 22.5704Z" fill="white"/>
<path fill-rule="evenodd" clip-rule="evenodd" d="M34.8406 24.4841L34.8781 26.0976H37.0732L37.1295 23.8462L34.8406 23.7899V24.4841Z" fill="#372780"/>
</g>
<defs>
<clipPath id="clip0_6:2753">
<rect width="44.0901" height="50" fill="white"/>
</clipPath>
</defs>
</svg>
