<svg width="50" height="50" viewBox="0 0 50 50" fill="none" xmlns="http://www.w3.org/2000/svg">
<path fill-rule="evenodd" clip-rule="evenodd" d="M3.66291 0.079816C-0.753246 1.00063 0.0923543 5.4168 0.0923543 9.02489V40.2762C0.0923543 44.0346 -0.809615 48.3568 3.02398 49.6723C5.02103 49.9627 7.044 50.032 9.05624 49.879H39.9505C41.9894 50.0403 44.0378 50.0403 46.0767 49.879C46.8182 49.7219 47.5068 49.3766 48.0761 48.8763C48.6455 48.3761 49.0765 47.7377 49.3278 47.0226C49.6275 45.0267 49.7157 43.0047 49.5909 40.9903V9.72019C49.5909 6.05572 50.4929 1.54561 46.6593 0.324123C44.6643 0.0146111 42.6413 -0.0735906 40.627 0.0610629H9.73273C7.70958 -0.0413481 5.68191 -0.00998244 3.66291 0.155001V0.079816Z" fill="#F6DF1A"/>
<path fill-rule="evenodd" clip-rule="evenodd" d="M33.298 39.0924L29.5396 41.2911C30.2743 42.8342 31.4868 44.0994 32.9973 44.8991C34.873 45.8421 36.9779 46.2331 39.0672 46.0267C43.2202 45.6508 46.2082 42.9636 45.5692 38.3407C44.8176 32.5903 37.639 32.3084 35.8725 30.1097C35.5912 29.7125 35.4496 29.2332 35.47 28.7468C35.4904 28.2605 35.6716 27.7947 35.9852 27.4225C36.3687 27.0969 36.8324 26.8799 37.3281 26.794C37.8237 26.7081 38.3334 26.7564 38.8041 26.9339C39.9692 27.3661 40.1383 28.1741 40.6833 28.8131C41.9321 28.1161 43.1258 27.3245 44.2538 26.4452C43.873 25.6799 43.3451 24.9972 42.7002 24.4361C42.0553 23.8751 41.306 23.4466 40.4953 23.1754C37.1503 21.9915 32.2456 23.0627 31.0993 27.103C30.8252 28.0697 30.7639 29.0844 30.9196 30.0771C31.0753 31.0698 31.4444 32.017 32.0013 32.8534C34.4443 36.1984 39.5182 36.6118 40.6833 38.491C42.3934 41.5541 37.4886 43.0575 34.8765 41.0655C34.2558 40.5039 33.7009 39.8734 33.2228 39.1863L33.298 39.0924Z" fill="black"/>
<path fill-rule="evenodd" clip-rule="evenodd" d="M22.4174 38.7164C22.4174 40.5956 21.9476 41.7796 20.012 41.8359C19.3187 41.8007 18.6525 41.5553 18.102 41.1323C17.5516 40.7094 17.1428 40.129 16.9301 39.4682L13.1717 41.7232C13.7149 42.9527 14.5898 44.0067 15.6984 44.7668C16.8071 45.5269 18.1056 45.9632 19.4483 46.0266C24.5221 46.0266 27.0779 43.9407 27.0779 38.5097V22.9123H22.4362L22.4174 38.7164Z" fill="black"/>
</svg>
