<svg width="49" height="50" viewBox="0 0 49 50" fill="none" xmlns="http://www.w3.org/2000/svg">
<g clip-path="url(#clip0_6:66)">
<path fill-rule="evenodd" clip-rule="evenodd" d="M0.262466 5.47432C0.094197 6.49069 0.00643645 7.51878 0 8.54896V18.6352L1.96851 19.4413C5.60205 20.8094 9.37384 21.7775 13.2171 22.3284C14.9794 22.6097 16.6667 22.6659 18.3727 22.9284L17.4166 20.3974L10.4987 19.4413H17.0416L14.7732 13.3858C15.0919 12.8984 15.4106 12.5235 15.673 12.111L18.3352 8.36148C20.21 5.62432 19.2351 6.37421 23.9595 5.41808C25.0656 5.13687 26.2467 4.93065 27.4653 4.66819C29.5275 4.23699 29.0026 4.44318 30.2775 5.56804C30.6425 5.88351 30.9811 6.2284 31.2898 6.59919C31.5523 6.9179 32.0772 7.34911 32.3959 7.66782C33.1459 8.36149 33.8395 9.05514 34.5894 9.76755C34.5894 10.1425 29.4338 21.616 29.1151 21.991L25.1218 21.6161V22.2722V23.1721C26.1342 23.0784 27.3528 23.1721 28.3652 23.0784C31.4157 22.9044 34.4524 22.5413 37.4578 21.991C39.3326 21.6723 46.8316 19.8538 47.919 18.8789C48.144 18.5039 47.919 7.12412 47.919 5.88677C47.8261 5.10101 47.5911 4.33867 47.2254 3.63703C46.9629 2.99961 46.9066 3.1496 47.0191 2.99962C46.8598 2.53106 46.5414 2.13307 46.1192 1.87475C45.7641 1.5779 45.3737 1.32604 44.9569 1.12485C44.6382 1.12485 44.7882 1.12489 44.6757 1.21862L44.9006 1.5373C44.1859 1.1849 43.4387 0.902408 42.6697 0.693691C41.5448 0.412477 34.6457 0.524969 33.2021 0.524969C24.8032 0.524969 15.823 0.412483 7.53657 0.524969C6.59723 0.521595 5.66883 0.726441 4.81816 1.12485C3.756 1.61535 2.82119 2.3441 2.08637 3.2545C1.35155 4.1649 0.836474 5.23247 0.581173 6.37423L0.468691 5.94301C0.468691 5.56806 0.581182 5.84925 0.35621 5.5118L0.262466 5.47432Z" fill="#4CACD4"/>
<path fill-rule="evenodd" clip-rule="evenodd" d="M0.899886 46.213L1.53733 46.438C2.08101 46.9067 1.70605 46.8691 2.23098 47.1879C2.75592 47.5066 3.7683 48.6876 4.66818 48.6876L4.5182 48.8939C4.98689 48.8939 4.98688 49.0064 5.47432 49.1189C7.21142 49.378 8.97159 49.4472 10.7237 49.3251H40.495C41.5653 49.3973 42.6376 49.2175 43.6258 48.8002C43.97 48.5963 44.327 48.4147 44.6944 48.2565L45.1069 47.994C45.3881 47.769 45.2756 47.8253 45.4818 47.6753L46.3442 46.7004C47.2235 45.5746 47.74 44.2081 47.8253 42.7821C47.8253 40.3075 47.8253 37.739 47.8253 35.2831H-0.0562344C-0.0562344 37.1578 -0.0562344 39.2013 -0.0562344 41.1323C-0.204877 42.8633 0.105511 44.6028 0.843645 46.1755L0.899886 46.213Z" fill="#252525"/>
<path fill-rule="evenodd" clip-rule="evenodd" d="M25.1406 22.2347C24.7657 22.7034 25.0282 27.2778 24.7095 28.2902L24.3345 22.1785C24.3345 22.6659 24.447 22.6659 24.3345 23.1346L19.9663 23.0408L20.3412 23.997C21.1149 23.9937 21.8851 24.101 22.6285 24.3157L20.4912 24.6344L20.7162 25.2906C21.3299 25.4379 21.9598 25.5072 22.591 25.4968C22.4785 25.6093 22.4785 25.4968 22.3285 25.6655L20.9974 25.8718L21.2599 26.8466L22.7034 26.9966L21.4286 27.4278L22.7972 31.2898L26.303 31.5148L26.6779 27.3715L25.1406 26.9029H27.2216V32.4147C26.2655 32.3209 24.0908 32.4147 22.066 32.4147L18.3165 22.8159C16.6105 22.5534 14.9232 22.4972 13.1609 22.2159C9.31763 21.665 5.54584 20.6969 1.9123 19.3288L-0.0562134 18.6351V35.3206H47.9378C48.144 34.7957 47.9378 22.3284 47.9378 20.6224V9.37378C47.9378 8.4739 48.2002 6.43043 47.7128 5.83051C47.7128 7.06785 47.994 18.4477 47.7128 18.8226C46.7004 19.7975 39.2201 21.616 37.2516 21.9347C34.2462 22.485 31.2095 22.8482 28.159 23.0221C27.1466 23.0221 25.9281 23.0221 24.9157 23.1158L25.1406 22.2347Z" fill="#098EC7"/>
<path fill-rule="evenodd" clip-rule="evenodd" d="M19.9288 23.0409L24.297 23.1347C24.447 22.666 24.297 22.666 24.297 22.1785L23.7721 11.7548L25.4218 11.4361L25.1594 19.4414L27.859 19.6476C28.084 19.3851 31.8523 10.7987 32.0023 10.2737C31.8409 10.0326 31.6656 9.80095 31.4774 9.58009C31.2149 9.31762 31.1586 9.20514 30.8962 8.94267C27.9715 5.8868 29.2464 5.88679 26.5842 6.41173L21.3911 7.44283C20.4162 7.64905 20.6412 7.85527 19.5163 9.31759C18.7852 10.2175 18.0915 11.1924 17.3416 12.111C16.5917 13.0297 16.3855 12.5422 17.4541 15.5981C17.8853 16.8354 18.2415 18.054 18.6727 19.3476C19.1039 20.6412 19.5163 22.0848 19.9475 23.0971L19.9288 23.0409Z" fill="#4CACD4"/>
<path fill-rule="evenodd" clip-rule="evenodd" d="M18.3915 22.9284L22.141 32.5272H25.1219H26.8279H27.2966V27.0154H25.2156L26.753 27.4841L26.378 31.6273L22.8722 31.4023L21.5036 27.5403L22.7784 27.1091L21.3349 26.9591L21.0724 25.9843L22.4035 25.778C22.5535 25.6655 22.5535 25.778 22.666 25.6093C22.0349 25.6197 21.405 25.5505 20.7912 25.4031L20.5662 24.7469L22.7035 24.4282C21.9601 24.2136 21.1899 24.1062 20.4163 24.1095L20.0413 23.1534C19.6101 22.1222 19.1976 20.5099 18.7664 19.4038C18.3353 18.2977 17.9791 16.8916 17.5479 15.6543C16.4792 12.5984 16.5355 13.2921 17.4354 12.1673C18.3353 11.0424 18.879 10.2925 19.6101 9.37382C20.7912 7.91151 20.5662 7.70528 21.4849 7.49906L26.678 6.46796C29.3401 5.94303 28.0653 5.94304 30.9899 8.99891C31.2524 9.26137 31.3086 9.37385 31.5711 9.63632C31.7594 9.85719 31.9346 10.0888 32.096 10.33C31.9461 10.9299 28.1778 19.5163 27.9528 19.7038L25.2532 19.4976L25.5156 11.4923L23.8658 11.8111L24.3907 22.2347L24.7657 28.3465C25.0844 27.3341 24.7657 22.7222 25.1969 22.291V21.6348L29.1902 22.0098C29.5089 21.6348 34.6082 10.1612 34.6645 9.78628C33.9146 9.07386 33.2209 8.38021 32.471 7.68655C32.1523 7.36784 31.6273 6.93668 31.3649 6.61797C31.0562 6.24719 30.7176 5.90229 30.3525 5.58682C29.0777 4.46196 29.6026 4.25572 27.5404 4.68691C26.3218 4.94938 25.1407 5.15565 24.0346 5.43686C19.3476 6.39299 20.285 5.64304 18.4103 8.3802L15.7481 12.1297C15.4856 12.5422 15.1669 12.9172 14.8482 13.4046L17.1354 19.5351H10.5925L17.5104 20.4912L18.3915 22.9284Z" fill="#010101"/>
<path fill-rule="evenodd" clip-rule="evenodd" d="M47.8253 5.88679C48.3127 6.48671 48.0503 8.53024 48.0503 9.43012V20.6787C48.0503 22.3848 48.2002 34.8519 48.0503 35.3769C48.0503 37.8516 48.0503 40.42 48.0503 42.8759C47.965 44.3019 47.4485 45.6683 46.5692 46.7942L45.7068 47.769C45.5006 47.919 45.7068 47.8628 45.3319 48.0878L44.9194 48.3502C44.552 48.5085 44.195 48.6901 43.8508 48.8939C42.8625 49.3112 41.7902 49.491 40.7199 49.4188H10.8361C9.08407 49.5409 7.3239 49.4717 5.58679 49.2126C5.09936 49.1001 5.09937 48.9876 4.63067 48.9876C4.63067 48.9876 4.78066 48.8377 4.78066 48.7814C3.88077 48.7814 2.90589 47.6565 2.34346 47.2816C1.78103 46.9066 2.19349 47.0004 1.6498 46.5317L1.01239 46.3067C1.49983 46.6442 1.61229 47.6566 3.56204 48.8939C3.88075 49.1001 4.36821 49.3251 4.63067 49.5313L5.26809 49.7001C6.86164 50.2812 12.7672 50.0188 14.8294 50.0188H34.6644C37.2141 50.0188 41.8823 50.3937 44.0383 49.4751C45.4745 48.89 46.684 47.8579 47.4878 46.5317C48.4198 44.868 48.7943 42.9495 48.5564 41.0574V8.00528C48.7032 6.19599 48.1683 4.39717 47.0566 2.96216C46.9441 3.11214 47.0566 2.96215 47.2629 3.59957C47.6286 4.30121 47.8636 5.06355 47.9565 5.84931L47.8253 5.88679Z" fill="#141414"/>
<path fill-rule="evenodd" clip-rule="evenodd" d="M20.7724 46.1568H23.1159L23.1721 43.0447L25.778 42.9884V46.1568H28.159V38.3765L25.778 38.3203V41.0574H23.1159V38.3203H20.7724V46.1568Z" fill="#098EC7"/>
<path fill-rule="evenodd" clip-rule="evenodd" d="M29.7713 46.1193C30.5621 46.2131 31.3613 46.2131 32.1522 46.1193V43.2697C33.3708 43.1009 34.4957 43.4759 35.4518 42.6697C35.8564 42.3391 36.146 41.8888 36.279 41.3835C36.412 40.8781 36.3817 40.3436 36.1923 39.8565C36.0029 39.3695 35.6642 38.9549 35.2247 38.6722C34.7852 38.3895 34.2675 38.2532 33.7458 38.2828C32.4709 38.2828 30.9898 38.2828 29.7525 38.2828L29.7713 46.1193Z" fill="#098EC7"/>
<path fill-rule="evenodd" clip-rule="evenodd" d="M12.8609 46.1755H15.2606V43.2696C16.3842 43.4661 17.5412 43.2743 18.5414 42.7259C18.9647 42.3882 19.2656 41.921 19.3979 41.3959C19.5302 40.8708 19.4866 40.3168 19.2738 39.8188C19.061 39.3209 18.6907 38.9065 18.2198 38.6392C17.7489 38.3719 17.2033 38.2664 16.6666 38.339C15.448 38.339 14.0045 38.339 12.7859 38.339L12.8609 46.1755Z" fill="#098EC7"/>
<path fill-rule="evenodd" clip-rule="evenodd" d="M0.262512 5.47436C0.487484 5.81182 0.262508 5.47438 0.374994 5.90558L0.487475 6.33674C0.742776 5.19498 1.25785 4.12746 1.99267 3.21707C2.72749 2.30667 3.6623 1.57792 4.72446 1.08742C5.57513 0.689006 6.50353 0.484102 7.44287 0.487477C15.7293 0.374991 24.7095 0.487477 33.1084 0.487477C34.552 0.487477 41.4511 0.374984 42.576 0.656199C43.3451 0.864915 44.0922 1.14747 44.8069 1.49987L44.582 1.18113C44.6945 1.08739 44.582 1.08742 44.8632 1.08742C44.2258 5.13945e-05 40.9824 1.9339e-05 39.6513 1.9339e-05H7.64909C5.92397 -0.0468341 4.23547 0.502786 2.86844 1.55611C1.57885 2.52725 0.659501 3.90958 0.262512 5.47436V5.47436Z" fill="#ABD7E8"/>
<path fill-rule="evenodd" clip-rule="evenodd" d="M15.3169 41.6573C16.1043 41.6573 17.0604 41.7698 17.1917 40.8511C17.3229 39.9325 16.2355 39.895 15.3169 39.9325V41.6573Z" fill="#252525"/>
<path fill-rule="evenodd" clip-rule="evenodd" d="M32.2086 41.6573C32.996 41.6573 33.9521 41.6573 34.0833 40.8512C34.2146 40.045 33.0709 39.8388 32.2086 39.9888V41.6573Z" fill="#252525"/>
<path fill-rule="evenodd" clip-rule="evenodd" d="M18.3915 13.5733L19.985 13.5171L20.6787 11.811L18.9727 11.8673L18.3915 13.5733Z" fill="#010101"/>
</g>
<defs>
<clipPath id="clip0_6:66">
<rect width="48.4064" height="50" fill="white"/>
</clipPath>
</defs>
</svg>
