<svg width="68" height="50" viewBox="0 0 68 50" fill="none" xmlns="http://www.w3.org/2000/svg">
<path fill-rule="evenodd" clip-rule="evenodd" d="M28.2939 0.0398359C28.1621 0.0551813 27.713 0.106227 27.2958 0.153376C26.8786 0.200446 26.0862 0.325595 25.5351 0.431502C24.9838 0.53733 23.9572 0.782459 23.2536 0.976225C22.55 1.17007 21.3122 1.57843 20.503 1.88367C19.6937 2.18899 18.4555 2.68831 17.7515 2.99331C17.0474 3.29831 15.8834 3.84105 15.1648 4.19932C14.4462 4.55767 13.4192 5.0958 12.8828 5.39523C12.3463 5.69466 11.4565 6.2246 10.9056 6.57285C10.3546 6.92111 9.54409 7.46002 9.10445 7.77043C8.66481 8.08076 8.02372 8.55615 7.67974 8.82664C7.33583 9.09721 6.67717 9.64782 6.21605 10.0502C5.75493 10.4527 5.07176 11.0994 4.69783 11.4875C4.32391 11.8755 3.76426 12.4971 3.45421 12.8688C3.14416 13.2406 2.6717 13.8488 2.40429 14.2205C2.13689 14.5922 1.69948 15.2889 1.43231 15.7687C1.16514 16.2486 0.835293 16.9284 0.699393 17.2794C0.563413 17.6305 0.365471 18.2541 0.259513 18.6652C0.153556 19.0764 0.0442451 19.7058 0.0166179 20.0639C-0.0205111 20.5444 0.00272461 20.8781 0.105089 21.3363C0.181343 21.6778 0.332413 22.1932 0.440766 22.4818C0.549119 22.7703 0.790418 23.2926 0.977022 23.6424C1.16363 23.9923 1.54538 24.6005 1.82532 24.9941C2.11062 25.3951 2.8631 26.2375 3.53669 26.9099C4.19791 27.5701 5.17005 28.4481 5.69704 28.8611C6.22404 29.2741 7.10436 29.9347 7.65331 30.329C8.20226 30.7233 9.11851 31.3644 9.68942 31.7536C10.2603 32.1429 11.0508 32.6918 11.4461 32.9734C11.8413 33.255 12.3712 33.6501 12.6235 33.8514C12.8759 34.0526 13.0819 34.2531 13.0813 34.2968C13.0808 34.3405 12.5886 34.6268 11.9876 34.9329C11.3866 35.239 10.3362 35.8235 9.65333 36.2319C8.97055 36.6402 8.05254 37.2276 7.61338 37.5372C7.17422 37.8469 6.49153 38.3599 6.09628 38.6774C5.70104 38.9948 5.03367 39.606 4.61319 40.0356C4.1928 40.4652 3.67722 41.0587 3.46746 41.3546C3.2577 41.6505 2.96123 42.1872 2.80856 42.5473C2.65598 42.9073 2.45596 43.506 2.36413 43.8777C2.24596 44.3561 2.19725 44.809 2.19741 45.4282C2.19749 46.0126 2.24404 46.4743 2.3377 46.8196C2.41484 47.1038 2.60926 47.6047 2.76984 47.9326C2.95652 48.3138 3.22241 48.6887 3.50723 48.9723C3.75228 49.2164 4.11159 49.4923 4.30586 49.5854C4.50013 49.6787 4.9781 49.81 5.36815 49.8775C5.75821 49.9449 6.517 50 7.05445 50C7.5919 50 8.34838 49.945 8.73556 49.8778C9.12274 49.8105 9.71129 49.665 10.0435 49.5544C10.3758 49.4438 10.9817 49.1962 11.3902 49.004C11.7986 48.8119 12.4653 48.4237 12.8719 48.1415C13.2784 47.8593 13.8886 47.3702 14.2278 47.0548C14.567 46.7393 15.119 46.119 15.4543 45.6764C15.8306 45.1799 16.2411 44.5062 16.5261 43.9175C16.7802 43.3927 17.0756 42.6592 17.1826 42.2875C17.2896 41.9158 17.4396 41.2539 17.5159 40.8166C17.6045 40.3088 17.6547 39.6049 17.6548 38.8686C17.6548 38.2345 17.6129 37.4653 17.5617 37.1591C17.5104 36.853 17.4111 36.37 17.341 36.0858C17.2708 35.8015 17.1284 35.3767 17.0246 35.1417C16.9207 34.9066 16.8358 34.7051 16.8358 34.6938C16.8358 34.6826 17.4197 34.3345 18.1333 33.9202C18.847 33.5061 19.6752 33.0326 19.9739 32.8682C20.2726 32.7036 20.5341 32.586 20.5551 32.6069C20.576 32.6277 20.5563 32.7413 20.5112 32.8592C20.4662 32.9771 20.3415 33.4203 20.2342 33.8442C20.1268 34.268 19.977 35.0263 19.901 35.5292C19.8251 36.0321 19.7608 36.9266 19.7582 37.5169C19.7556 38.1073 19.8015 38.8587 19.8604 39.1866C19.9192 39.5146 20.0745 40.1229 20.2056 40.5383C20.3368 40.9538 20.6014 41.6157 20.7937 42.0092C20.9861 42.4028 21.3048 42.9082 21.5022 43.1323C21.7001 43.3571 22.0322 43.6213 22.2429 43.7216C22.5392 43.8627 22.7678 43.9042 23.2635 43.907C23.8017 43.91 23.9659 43.8777 24.3065 43.7015C24.5289 43.5866 24.8451 43.3446 25.0091 43.1638C25.1732 42.983 25.438 42.6317 25.5977 42.3832C25.7573 42.1347 26.1489 41.3876 26.4679 40.7229C26.7869 40.0583 27.1993 39.1456 27.3844 38.6946C27.5695 38.2437 27.7446 37.8471 27.7736 37.8134C27.8026 37.7796 27.7937 38.0122 27.7539 38.3302C27.7142 38.6482 27.6983 39.3914 27.7187 39.9817C27.7464 40.7877 27.7991 41.1901 27.9297 41.5968C28.0419 41.9459 28.2086 42.2542 28.3985 42.4637C28.5605 42.6425 28.8087 42.8371 28.9501 42.896C29.0914 42.9549 29.3622 43.0031 29.5519 43.0031C29.7417 43.0031 30.0256 42.9378 30.1828 42.858C30.34 42.7782 30.6352 42.5769 30.8389 42.4108C31.0425 42.2446 31.4002 41.8537 31.6337 41.5421C31.867 41.2305 32.2392 40.6536 32.4605 40.26C32.6819 39.8665 33.0976 39.1151 33.3843 38.5903C33.671 38.0656 34.3189 36.8133 34.8243 35.8075C35.3295 34.8017 36.0203 33.3526 36.3593 32.5873C36.6985 31.822 37.1902 30.6771 37.4522 30.043C37.7142 29.4089 37.9648 28.8007 38.009 28.6913C38.0778 28.5213 38.1454 28.7142 38.4759 30.0222C38.8191 31.3806 38.9349 31.7033 39.5101 32.9054L40.1579 34.2589L39.7778 34.7947C39.5686 35.0893 39.1629 35.6189 38.8761 35.9715C38.5893 36.3241 37.7889 37.286 37.0974 38.1092C36.4059 38.9323 35.7317 39.7687 35.5992 39.968C35.4667 40.1672 35.3207 40.4694 35.2746 40.6397C35.2286 40.8099 35.2135 41.0519 35.2412 41.1773C35.2689 41.3028 35.3613 41.4938 35.4466 41.6017C35.5319 41.7097 35.763 41.8594 35.9603 41.9344C36.2547 42.0463 36.4875 42.063 37.257 42.0271C37.8078 42.0015 38.4257 41.9196 38.7539 41.829C39.0613 41.744 39.6339 41.5442 40.0264 41.3849C40.4189 41.2257 40.9938 40.9462 41.304 40.7638C41.6141 40.5814 42.139 40.1609 42.4703 39.8293C42.8723 39.4269 43.1725 39.0349 43.3727 38.6505C43.5376 38.3338 43.7241 37.8329 43.7869 37.5374C43.8498 37.2419 43.9019 36.7571 43.9027 36.4601C43.9034 36.163 43.8471 35.6442 43.7776 35.3072C43.708 34.9702 43.5344 34.3839 43.3917 34.0045L43.1322 33.3148L43.9065 32.1341C44.3323 31.4848 45.0268 30.3549 45.4497 29.6233C45.8726 28.8918 46.4215 27.8908 46.6696 27.3991C47.0328 26.6789 47.1322 26.5357 47.1806 26.6638C47.2136 26.7513 47.3853 27.4197 47.5621 28.1492C47.8292 29.2512 47.9765 29.6721 48.4335 30.6383L48.9835 31.8012L47.9345 32.8502C47.2259 33.5589 46.7241 34.1443 46.3881 34.6546C46.1145 35.07 45.7858 35.6282 45.6577 35.8949C45.5294 36.1616 45.3522 36.6804 45.2637 37.0477C45.1752 37.4152 45.1028 37.8946 45.1028 38.1133C45.1027 38.3319 45.1398 38.6439 45.1851 38.8065C45.2305 38.9691 45.3635 39.2157 45.4808 39.3545C45.5981 39.4933 45.8392 39.6725 46.0167 39.7528C46.1941 39.8331 46.5127 39.8995 46.7246 39.9005C46.9364 39.9014 47.3856 39.8113 47.7227 39.7002C48.0598 39.589 48.736 39.3042 49.2254 39.0671C49.7434 38.8162 50.3677 38.4338 50.7194 38.152C51.0518 37.8858 51.5254 37.4462 51.7719 37.175C52.029 36.8922 52.3621 36.3963 52.5534 36.0117L52.8869 35.3413L52.8814 34.3023C52.8764 33.3646 52.8521 33.192 52.6323 32.534L52.3888 31.8048L52.7975 31.6345C53.0223 31.5408 53.5655 31.3771 54.0047 31.2706C54.4437 31.1642 55.2828 31.0348 55.8691 30.9831C56.693 30.9105 57.2101 30.9108 58.1449 30.9845C58.8102 31.037 59.6779 31.148 60.0732 31.2311C60.4684 31.3144 61.0613 31.4786 61.3906 31.5961C61.72 31.7136 62.266 31.9518 62.6039 32.1256C62.9419 32.2993 63.4629 32.6454 63.7617 32.8946C64.0606 33.1438 64.4933 33.5965 64.7232 33.9005C64.9533 34.2045 65.2313 34.6767 65.3411 34.9499C65.4509 35.223 65.5798 35.6971 65.6275 36.0033C65.6923 36.4187 65.6901 36.6766 65.6191 37.0186C65.5667 37.2709 65.4217 37.6791 65.2969 37.9258C65.1721 38.1726 64.8979 38.55 64.6875 38.7646C64.4771 38.9793 64.0784 39.3079 63.8013 39.495C63.4077 39.7606 63.3029 39.8729 63.3222 40.0078C63.3405 40.1358 63.4106 40.1867 63.5931 40.2045C63.7286 40.2176 64.029 40.1539 64.261 40.0629C64.4929 39.9719 64.8432 39.7873 65.0395 39.6529C65.2358 39.5184 65.5909 39.2146 65.8286 38.9779C66.0775 38.7302 66.38 38.312 66.5418 37.992C66.6963 37.6864 66.88 37.1951 66.9499 36.9002C67.0422 36.5109 67.0643 36.162 67.0305 35.6263C66.998 35.1114 66.9096 34.6678 66.7378 34.1571C66.6024 33.7547 66.3813 33.2335 66.2465 32.9988C66.1116 32.7641 65.7923 32.3101 65.5368 31.99C65.2814 31.6699 64.7814 31.1741 64.4259 30.8883C64.0703 30.6024 63.5204 30.2277 63.2038 30.0556C62.8873 29.8835 62.3049 29.6157 61.9096 29.4604C61.5144 29.3051 60.8317 29.1024 60.3925 29.0099C59.8389 28.8933 59.1656 28.8281 58.1967 28.7972C57.1299 28.7633 56.5766 28.784 55.8571 28.8844C55.3389 28.9568 54.5844 29.1015 54.1803 29.2061C53.7764 29.3106 53.0865 29.545 52.6473 29.7268C52.2082 29.9087 51.7929 30.0745 51.7245 30.0952C51.6307 30.1238 51.461 29.8433 51.0347 28.955C50.7238 28.3071 50.4305 27.6517 50.3828 27.4987C50.3351 27.3456 50.2401 26.791 50.1715 26.2663C50.1028 25.7392 50.0683 25.1164 50.0947 24.8749C50.121 24.6343 50.1796 24.2408 50.2248 24.0002C50.2701 23.7597 50.4505 23.1212 50.6256 22.5813C50.8302 21.9507 50.9263 21.5292 50.8944 21.4027C50.8602 21.2668 50.7284 21.1529 50.4685 21.0348C50.1517 20.8907 49.9533 20.8648 49.2139 20.871C48.7308 20.875 48.1217 20.9229 47.8602 20.9774C47.5988 21.0318 47.2679 21.1318 47.125 21.1997C46.9574 21.2793 46.8239 21.426 46.7488 21.6129C46.6847 21.7722 46.5195 22.3592 46.3817 22.9172C46.2143 23.5948 45.9757 24.2696 45.6634 24.9486C45.4061 25.5077 44.8737 26.5517 44.4801 27.2686C44.0865 27.9855 43.4912 29.0455 43.1572 29.6241C42.8233 30.2027 42.4684 30.8016 42.3687 30.9549C42.2689 31.1083 42.165 31.2341 42.1377 31.2347C42.1104 31.2352 41.9264 30.869 41.7288 30.4207C41.5313 29.9725 41.3449 29.5349 41.3148 29.4483C41.2846 29.3617 41.2088 28.9323 41.1462 28.4941C41.0837 28.056 41.0318 27.477 41.031 27.2075C41.0302 26.9381 41.0806 26.455 41.1429 26.1341C41.2052 25.8132 41.4038 25.0897 41.5842 24.5263C41.8947 23.5567 41.9054 23.4915 41.784 23.3071C41.7136 23.2 41.524 23.0543 41.3627 22.9834C41.1476 22.8888 40.8353 22.8555 40.1911 22.8586C39.7081 22.861 39.0972 22.9083 38.8337 22.9638C38.5702 23.0192 38.2199 23.1327 38.0552 23.216C37.8906 23.2993 37.7558 23.3836 37.7558 23.4035C37.7558 23.4233 37.649 23.855 37.5184 24.3627C37.3878 24.8705 37.0788 25.7569 36.8319 26.3327C36.5848 26.9084 36.1291 27.9519 35.8189 28.6516C35.5089 29.3513 34.8453 30.8361 34.3444 31.9512C33.8435 33.0664 33.2008 34.4975 32.9162 35.1316C32.6317 35.7657 32.0855 36.8928 31.7026 37.6362C31.2744 38.4674 30.9606 38.9879 30.8877 38.9879C30.7942 38.9879 30.7642 38.8477 30.7458 38.324C30.7326 37.9468 30.778 37.3633 30.851 36.9724C30.9217 36.5941 31.1929 35.4351 31.4537 34.3969C31.7145 33.3587 32.0533 32.0531 32.2068 31.4956C32.3603 30.938 32.4859 30.3426 32.4859 30.1724C32.4859 29.9234 32.4328 29.8131 32.214 29.6077C32.0644 29.4672 31.7806 29.3073 31.5833 29.2523C31.3859 29.1973 31.1147 29.1763 30.9806 29.2055C30.8464 29.2349 30.6433 29.332 30.5291 29.4215C30.415 29.5109 30.3057 29.5683 30.2864 29.549C30.267 29.5297 30.2889 29.214 30.3351 28.8476C30.3812 28.481 30.3946 27.9471 30.3648 27.661C30.335 27.375 30.2566 26.9799 30.1906 26.7831C30.1246 26.5863 29.9631 26.2696 29.8316 26.0794C29.6691 25.8441 29.4616 25.6728 29.1828 25.5435C28.865 25.3962 28.6384 25.3535 28.1741 25.3537C27.7221 25.354 27.4146 25.4097 26.9198 25.5812C26.5593 25.7062 25.9946 25.9758 25.665 26.1804C25.3353 26.3851 24.8786 26.6924 24.65 26.8634C24.4214 27.0344 23.9682 27.4315 23.643 27.7458C23.3178 28.0601 22.8597 28.5535 22.625 28.8422C22.2134 29.3487 22.13 29.4044 20.2556 30.4235C19.1872 31.0044 17.7021 31.8146 16.9555 32.224L15.5981 32.9682L14.8795 32.2792C14.4843 31.9004 13.8555 31.3377 13.4822 31.0291C13.1089 30.7203 12.2286 30.0268 11.5259 29.4877C10.8232 28.9487 9.87107 28.2024 9.40995 27.8294C8.94883 27.4564 8.15658 26.7359 7.64939 26.2283C7.12192 25.7003 6.53249 25.0138 6.2721 24.6241C6.0217 24.2494 5.71182 23.7122 5.5835 23.4302C5.45511 23.1483 5.29318 22.6991 5.22363 22.432C5.15416 22.1648 5.07495 21.6836 5.04773 21.3627C5.0205 21.0416 5.04054 20.462 5.09228 20.0747C5.1441 19.6874 5.27864 19.0794 5.39139 18.7236C5.50413 18.3678 5.76803 17.7368 5.97787 17.3214C6.18763 16.906 6.58678 16.244 6.86481 15.8505C7.16208 15.4295 7.88063 14.6269 8.60972 13.9013C9.32387 13.1905 10.2551 12.3631 10.8073 11.9489C11.3343 11.5536 12.1068 10.9951 12.524 10.7078C12.9412 10.4206 13.8824 9.82847 14.6155 9.39196C15.3486 8.95553 16.7679 8.18468 17.7695 7.67907C18.771 7.17339 20.156 6.52538 20.8472 6.23915C21.5384 5.95283 22.6702 5.54097 23.3624 5.32383C24.0545 5.10669 24.8904 4.85663 25.2197 4.76821C25.5491 4.6798 26.1779 4.53716 26.6171 4.45137C27.0562 4.3655 27.8827 4.23327 28.4536 4.1575C29.1351 4.06702 30.0262 4.01955 31.0486 4.01931C32.1256 4.01907 32.8718 4.06066 33.4689 4.15432C33.9436 4.22882 34.6443 4.37973 35.0259 4.48977C35.4075 4.59981 36.0419 4.85742 36.4358 5.06224C36.9022 5.30483 37.3059 5.58963 37.5935 5.87905C37.8365 6.12354 38.1149 6.48301 38.2124 6.67788C38.3099 6.87284 38.4491 7.26316 38.5219 7.54542C38.6217 7.93239 38.6433 8.25393 38.6095 8.8536C38.5848 9.2909 38.4895 9.91704 38.3976 10.245C38.3058 10.573 38.0172 11.2707 37.7564 11.7955C37.4957 12.3202 37.0268 13.0895 36.7145 13.5049C36.4022 13.9204 35.8529 14.5584 35.494 14.9227C35.135 15.2869 34.5308 15.8462 34.1513 16.1655C33.7718 16.4847 33.0532 17.0147 32.5544 17.3432C32.0556 17.6717 31.2702 18.1391 30.8091 18.3818C30.3479 18.6243 29.4676 19.0195 28.8528 19.2598C28.238 19.5001 27.4116 19.79 27.0163 19.9042C26.6211 20.0183 25.7767 20.2163 25.1399 20.3441C24.5031 20.4719 23.6233 20.6184 23.1847 20.6695C22.7108 20.7248 21.9494 20.7434 21.3083 20.7153C20.6562 20.6868 19.9741 20.6056 19.5843 20.51C19.2296 20.4229 18.6953 20.2603 18.397 20.1485C18.0988 20.0367 17.6389 19.8147 17.3752 19.6552C17.1115 19.4956 16.7115 19.1824 16.4864 18.9591C16.2613 18.7358 16.0166 18.506 15.9426 18.4485C15.8408 18.3695 15.7678 18.3654 15.6432 18.4318C15.522 18.4964 15.4784 18.5979 15.4784 18.815C15.4784 18.9774 15.5819 19.3281 15.7083 19.5941C15.8365 19.8639 16.1595 20.3135 16.4385 20.6106C16.7138 20.9036 17.2308 21.3366 17.5874 21.5729C17.9439 21.8091 18.5154 22.1139 18.8573 22.2503C19.1992 22.3866 19.7432 22.5654 20.066 22.6476C20.3888 22.7298 20.9964 22.8353 21.416 22.8819C21.8358 22.9284 22.7109 22.9666 23.3607 22.9666C24.0104 22.9666 24.9909 22.9141 25.5396 22.85C26.0883 22.7857 26.8426 22.676 27.2159 22.606C27.5892 22.536 28.385 22.3564 28.9843 22.2069C29.5836 22.0574 30.4999 21.7868 31.0204 21.6056C31.5409 21.4244 32.3082 21.1272 32.7254 20.9452C33.1426 20.7631 33.8433 20.4047 34.2824 20.1488C34.7216 19.8928 35.4932 19.3764 35.9971 19.0012C36.501 18.626 37.312 17.9246 37.7993 17.4426C38.2866 16.9605 38.8847 16.3156 39.1282 16.0095C39.3717 15.7034 39.7933 15.1221 40.0651 14.7178C40.3369 14.3135 40.7705 13.5442 41.0287 13.0083C41.287 12.4724 41.5917 11.7478 41.7061 11.3979C41.8203 11.0481 41.9887 10.3325 42.0802 9.80771C42.215 9.0344 42.238 8.65768 42.2018 7.81997C42.1733 7.16313 42.0963 6.55441 41.9907 6.15026C41.8992 5.80041 41.7169 5.28543 41.5855 5.00587C41.4541 4.72623 41.1895 4.27899 40.9974 4.012C40.8052 3.74492 40.4015 3.29028 40.1003 3.00174C39.7989 2.7132 39.2934 2.31191 38.977 2.11004C38.6605 1.90816 38.1396 1.61159 37.8194 1.45098C37.4992 1.29045 36.7684 1.00548 36.1954 0.817682C35.6225 0.629959 34.76 0.402561 34.2789 0.312317C33.7978 0.222152 33.0807 0.112588 32.6855 0.0689367C32.2902 0.0252857 31.1943 -0.00540504 30.2501 0.000796734C29.3059 0.00699851 28.4256 0.02457 28.2939 0.0398359ZM28.3958 28.02C28.5319 28.1149 28.5729 28.2216 28.5716 28.4772C28.5706 28.6606 28.5004 29.1234 28.4156 29.5057C28.3307 29.888 28.012 30.9435 27.7075 31.8512C27.403 32.759 26.8664 34.2352 26.515 35.1316C26.1636 36.0281 25.6878 37.1909 25.4576 37.7157C25.2274 38.2405 24.9141 38.8666 24.7613 39.1071C24.6085 39.3477 24.4094 39.625 24.3187 39.7233C24.228 39.8217 24.0729 39.9022 23.974 39.9022C23.875 39.9022 23.7237 39.8131 23.6376 39.7043C23.5516 39.5953 23.4143 39.2643 23.3325 38.9688C23.2122 38.5347 23.184 38.1561 23.1859 37.0001C23.1875 35.9187 23.2238 35.4038 23.3343 34.8931C23.4147 34.5214 23.6007 33.8511 23.7475 33.4036C23.8944 32.9562 24.2341 32.1611 24.5025 31.637C24.7708 31.1128 25.1686 30.412 25.3866 30.0796C25.6045 29.7472 25.9459 29.3016 26.1452 29.0894C26.3445 28.8772 26.6979 28.5732 26.9304 28.4137C27.163 28.2542 27.493 28.0741 27.6639 28.0134C27.8347 27.9528 28.0293 27.9016 28.0964 27.8997C28.1636 27.8978 28.2983 27.952 28.3958 28.02ZM50.055 33.5527C50.1129 33.793 50.1356 34.1944 50.1099 34.5266C50.086 34.8375 49.9907 35.2924 49.8983 35.5375C49.8057 35.7827 49.6191 36.1501 49.4835 36.3539C49.3479 36.5578 49.0088 36.8928 48.7299 37.0983C48.451 37.3038 48.04 37.5523 47.8165 37.6506L47.4101 37.8292L47.346 37.6568C47.3107 37.562 47.3144 37.3396 47.3541 37.1627C47.3937 36.9858 47.5479 36.5433 47.6966 36.1793C47.8453 35.8153 48.1316 35.2545 48.3329 34.933C48.5341 34.6116 48.9529 34.0776 49.2636 33.7463C49.5743 33.4149 49.8573 33.1439 49.8925 33.1439C49.9277 33.1439 50.0009 33.3279 50.055 33.5527ZM14.9103 36.21C14.9969 36.5474 15.031 37.0904 15.0299 38.1133C15.0286 39.4276 15.0114 39.5996 14.8201 40.2203C14.7055 40.592 14.4991 41.1459 14.3614 41.4513C14.2236 41.7566 13.9188 42.2933 13.6839 42.644C13.449 42.9945 13.0471 43.5117 12.7906 43.7931C12.5342 44.0745 12.0634 44.5113 11.7444 44.7638C11.4255 45.0162 10.9404 45.3474 10.6665 45.4997C10.3926 45.6519 9.82779 45.89 9.41131 46.0287C8.86523 46.2106 8.49793 46.2827 8.09382 46.2871C7.78569 46.2906 7.40474 46.25 7.24728 46.1969C7.08982 46.1438 6.86721 46.0028 6.75247 45.8835C6.63773 45.7643 6.48809 45.5337 6.4199 45.3711C6.35171 45.2085 6.29646 44.8507 6.2971 44.576C6.29774 44.3013 6.35251 43.8474 6.41879 43.5672C6.48514 43.2871 6.68148 42.7561 6.85515 42.387C7.02874 42.018 7.32897 41.4959 7.5222 41.2266C7.71551 40.9573 8.0666 40.5401 8.30239 40.2992C8.53826 40.0584 8.9648 39.6616 9.25026 39.4176C9.53571 39.1736 10.1286 38.7043 10.5677 38.3748C11.0069 38.0454 11.7794 37.5089 12.2845 37.1828C12.7895 36.8566 13.5261 36.3895 13.9213 36.1448C14.3166 35.9 14.6736 35.7083 14.7146 35.7187C14.7557 35.7292 14.8437 35.9503 14.9103 36.21ZM41.0714 36.4634C41.0406 36.6712 40.9491 37.0299 40.8681 37.2605C40.7871 37.4912 40.5952 37.849 40.4417 38.0556C40.2882 38.2623 39.9713 38.6131 39.7377 38.8353C39.504 39.0575 39.1629 39.3535 38.9799 39.4929C38.7967 39.6325 38.4784 39.8207 38.2726 39.9114C38.0303 40.0182 37.8712 40.0489 37.8209 39.9988C37.7706 39.9488 38.0587 39.5756 38.639 38.9392C39.1316 38.399 39.8114 37.6165 40.1496 37.2002C40.4879 36.7841 40.8148 36.3631 40.8763 36.2647C40.9378 36.1662 41.0195 36.0858 41.0578 36.0858C41.0961 36.0858 41.1023 36.2557 41.0714 36.4634Z" fill="#CD6799"/>
</svg>
